<?xml version="1.0" encoding="UTF-8" standalone="no"?>
<!DOCTYPE svg PUBLIC "-//W3C//DTD SVG 1.1//EN" "http://www.w3.org/Graphics/SVG/1.1/DTD/svg11.dtd">
<svg width="100%" height="100%" viewBox="0 0 24 24" version="1.1" xmlns="http://www.w3.org/2000/svg" xmlns:xlink="http://www.w3.org/1999/xlink" xml:space="preserve" xmlns:serif="http://www.serif.com/" style="fill-rule:evenodd;clip-rule:evenodd;stroke-linejoin:round;stroke-miterlimit:2;">
    <g transform="matrix(1.2,0,0,1.2,-2.4,-2.4)">
        <path d="M12,2C6.514,2 2,6.514 2,12C2,17.486 6.514,22 12,22C17.486,22 22,17.486 22,12C22,6.514 17.486,2 12,2Z" style="fill-rule:nonzero;"/>
    </g>
    <path d="M13,5.921L9.818,9.105C9.111,9.812 8.781,10.723 8.83,11.562C8.88,12.401 9.263,13.146 9.818,13.701L11.23,12.285C10.663,11.717 10.686,11.065 11.232,10.519L14.414,7.337C14.939,6.812 15.664,6.814 16.186,7.335C16.668,7.891 16.713,8.574 16.182,9.105L15.362,9.925C15.917,10.71 16.007,11.291 15.955,12.16L17.596,10.519C18.833,9.282 18.833,7.154 17.596,5.917C16.36,4.681 14.254,4.706 13,5.921ZM13.707,9.806L12.293,11.224L12.297,11.224C12.847,11.774 12.804,12.482 12.293,12.994L9.111,16.175C8.415,16.767 7.813,16.646 7.342,16.175C6.715,15.549 6.842,14.907 7.342,14.407L8.192,13.56C7.636,12.777 7.543,12.195 7.594,11.328L5.928,12.994C4.689,14.233 4.692,16.354 5.928,17.589C7.163,18.825 9.29,18.825 10.526,17.589L13.707,14.407C14.416,13.699 14.747,12.789 14.698,11.949C14.65,11.109 14.266,10.362 13.709,9.808L13.707,9.806Z" style="fill:white;fill-rule:nonzero;"/>
</svg>
