<?xml version="1.0" encoding="UTF-8" standalone="no"?>
<!DOCTYPE svg PUBLIC "-//W3C//DTD SVG 1.1//EN" "http://www.w3.org/Graphics/SVG/1.1/DTD/svg11.dtd">
<svg width="100%" height="100%" viewBox="0 0 24 24" version="1.1" xmlns="http://www.w3.org/2000/svg" xmlns:xlink="http://www.w3.org/1999/xlink" xml:space="preserve" xmlns:serif="http://www.serif.com/" style="fill-rule:evenodd;clip-rule:evenodd;stroke-linejoin:round;stroke-miterlimit:2;">
    <g transform="matrix(1.2,0,0,1.2,-2.4,-2.4)">
        <path d="M12,2C6.514,2 2,6.514 2,12C2,17.486 6.514,22 12,22C17.486,22 22,17.486 22,12C22,6.514 17.486,2 12,2Z" style="fill-rule:nonzero;"/>
    </g>
    <g transform="matrix(0.636364,0,0,0.636364,4.36364,4.35455)">
        <path d="M1,20L1,17.2C1,16.633 1.146,16.113 1.438,15.637C1.729,15.163 2.117,14.8 2.6,14.55C3.633,14.033 4.683,13.646 5.75,13.387C6.817,13.129 7.9,13 9,13C10.1,13 11.183,13.129 12.25,13.387C13.317,13.646 14.367,14.033 15.4,14.55C15.883,14.8 16.271,15.163 16.563,15.637C16.854,16.113 17,16.633 17,17.2L17,20L1,20ZM19,20L19,17C19,16.267 18.796,15.563 18.388,14.887C17.979,14.212 17.4,13.633 16.65,13.15C17.5,13.25 18.3,13.421 19.05,13.663C19.8,13.904 20.5,14.2 21.15,14.55C21.75,14.883 22.208,15.254 22.525,15.663C22.842,16.071 23,16.517 23,17L23,20L19,20ZM9,12C7.9,12 6.958,11.608 6.175,10.825C5.392,10.042 5,9.1 5,8C5,6.9 5.392,5.958 6.175,5.175C6.958,4.392 7.9,4 9,4C10.1,4 11.042,4.392 11.825,5.175C12.608,5.958 13,6.9 13,8C13,9.1 12.608,10.042 11.825,10.825C11.042,11.608 10.1,12 9,12ZM19,8C19,9.1 18.608,10.042 17.825,10.825C17.042,11.608 16.1,12 15,12C14.817,12 14.583,11.979 14.3,11.938C14.017,11.896 13.783,11.85 13.6,11.8C14.05,11.267 14.396,10.675 14.638,10.025C14.879,9.375 15,8.7 15,8C15,7.3 14.879,6.625 14.638,5.975C14.396,5.325 14.05,4.733 13.6,4.2C13.833,4.117 14.067,4.063 14.3,4.037C14.533,4.012 14.767,4 15,4C16.1,4 17.042,4.392 17.825,5.175C18.608,5.958 19,6.9 19,8Z" style="fill:white;fill-rule:nonzero;"/>
    </g>
</svg>
