<?xml version="1.0" encoding="UTF-8" standalone="no"?>
<!DOCTYPE svg PUBLIC "-//W3C//DTD SVG 1.1//EN" "http://www.w3.org/Graphics/SVG/1.1/DTD/svg11.dtd">
<svg width="100%" height="100%" viewBox="0 0 24 24" version="1.1" xmlns="http://www.w3.org/2000/svg" xmlns:xlink="http://www.w3.org/1999/xlink" xml:space="preserve" xmlns:serif="http://www.serif.com/" style="fill-rule:evenodd;clip-rule:evenodd;stroke-linejoin:round;stroke-miterlimit:2;">
    <g transform="matrix(1.2,0,0,1.2,-2.4,-2.4)">
        <path d="M12,2C6.514,2 2,6.514 2,12C2,17.486 6.514,22 12,22C17.486,22 22,17.486 22,12C22,6.514 17.486,2 12,2Z" style="fill-rule:nonzero;"/>
    </g>
    <g transform="matrix(0.75,0,0,0.75,6,6)">
        <path d="M0.89,3C0.398,3 0,3.4 0,3.89L0,12.11C0,12.603 0.4,13 0.89,13L15.11,13C15.602,13 16,12.6 16,12.11L16,3.89C16,3.398 15.6,3 15.11,3L0.89,3ZM1.64,4.028L7.723,10.11L8.25,10.11L14.361,4.028L14.972,4.639L11.333,8.332L14.083,11.137L13.472,11.748L10.667,8.943L8.64,10.998L7.362,10.998L5.335,8.943L2.53,11.775L1.918,11.136L4.696,8.331L1.03,4.638L1.64,4.028Z" style="fill:white;fill-rule:nonzero;"/>
    </g>
</svg>
