<?xml version="1.0" encoding="UTF-8" standalone="no"?>
<!DOCTYPE svg PUBLIC "-//W3C//DTD SVG 1.1//EN" "http://www.w3.org/Graphics/SVG/1.1/DTD/svg11.dtd">
<svg width="100%" height="100%" viewBox="0 0 24 24" version="1.1" xmlns="http://www.w3.org/2000/svg" xmlns:xlink="http://www.w3.org/1999/xlink" xml:space="preserve" xmlns:serif="http://www.serif.com/" style="fill-rule:evenodd;clip-rule:evenodd;stroke-linejoin:round;stroke-miterlimit:2;">
    <g transform="matrix(1.2,0,0,1.2,-2.4,-2.4)">
        <path d="M12,2C6.514,2 2,6.514 2,12C2,17.486 6.514,22 12,22C17.486,22 22,17.486 22,12C22,6.514 17.486,2 12,2Z" style="fill-rule:nonzero;"/>
    </g>
    <g transform="matrix(0.8,0,0,0.8,2.4,2.4)">
        <path d="M11,17L7,17C5.617,17 4.438,16.513 3.463,15.538C2.488,14.563 2,13.383 2,12C2,10.617 2.488,9.438 3.463,8.462C4.438,7.488 5.617,7 7,7L11,7L11,9L7,9C6.167,9 5.458,9.292 4.875,9.875C4.292,10.458 4,11.167 4,12C4,12.833 4.292,13.542 4.875,14.125C5.458,14.708 6.167,15 7,15L11,15L11,17ZM8,13L8,11L16,11L16,13L8,13ZM13,17L13,15L17,15C17.833,15 18.542,14.708 19.125,14.125C19.708,13.542 20,12.833 20,12C20,11.167 19.708,10.458 19.125,9.875C18.542,9.292 17.833,9 17,9L13,9L13,7L17,7C18.383,7 19.563,7.488 20.538,8.462C21.513,9.438 22,10.617 22,12C22,13.383 21.513,14.563 20.538,15.538C19.563,16.513 18.383,17 17,17L13,17Z" style="fill:white;fill-rule:nonzero;"/>
    </g>
</svg>
