<svg width="24px" height="24px" viewBox="0 0 24 24" version="1.1" xmlns="http://www.w3.org/2000/svg">
    <defs></defs>
    <g id="Picon" stroke="none" stroke-width="1" fill="none" fill-rule="evenodd">
        <g id="file_password_request" fill-rule="nonzero">
            <polygon id="path" stroke-opacity="0" stroke="#000000" fill="#D5D5D5" points="0 0 24 0 24 24 0 24"></polygon>
            <path d="M15.87875,9.93937501 L15.173125,9.93937501 L15.173125,8.528125 C15.173125,6.58060001 13.592525,5 11.645,5 C9.69747502,5 8.116875,6.58060001 8.116875,8.528125 L8.116875,9.93937501 L7.41125,9.93937501 C6.63506251,9.93937501 6,10.5744375 6,11.350625 L6,18.4068749 C6,19.1830625 6.63506251,19.8181251 7.41125,19.8181251 L15.87875,19.8181251 C16.6549375,19.8181251 17.29,19.1830625 17.29,18.4068749 L17.29,11.350625 C17.29,10.5744375 16.6549375,9.93937501 15.87875,9.93937501 Z M9.52812502,8.528125 C9.52812502,7.35678751 10.4736626,6.41125001 11.645,6.41125001 C12.8163375,6.41125001 13.761875,7.35678751 13.761875,8.528125 L13.761875,9.93937501 L9.52812502,9.93937501 L9.52812502,8.528125 Z M15.87875,18.4068749 L7.41125,18.4068749 L7.41125,11.350625 L15.87875,11.350625 L15.87875,18.4068749 Z M11.645,16.2900001 C12.4211875,16.2900001 13.05625,15.6549376 13.05625,14.8787501 C13.05625,14.1025625 12.4211875,13.4675 11.645,13.4675 C10.8688125,13.4675 10.23375,14.1025625 10.23375,14.8787501 C10.23375,15.6549376 10.8688125,16.2900001 11.645,16.2900001 Z" id="Shape" fill="#FFFFFF"></path>
        </g>
    </g>
</svg>
