<svg width="21px" height="24px" viewBox="0 0 21 24" version="1.1" xmlns="http://www.w3.org/2000/svg">
    <defs></defs>
    <g id="Page-1" stroke="none" stroke-width="1" fill="none" fill-rule="evenodd">
        <g id="file-icon" fill-rule="nonzero" fill="#000000">
            <path d="M0.857142862,0 C0.377142852,0 0,0.377142852 0,0.857142862 L0,23.1428572 C0,23.6228571 0.377142852,24 0.857142862,24 L19.7142858,24 C20.1942858,24 20.5714286,23.6228571 20.5714286,23.1428572 L20.5714286,5.14285716 L15.4285714,0 L0.857142862,0 Z M3.42857143,3.42857143 L13.7142857,3.42857143 L13.7142857,5.14285716 L3.42857143,5.14285716 L3.42857143,3.42857143 Z M3.42857143,8.57142859 L12,8.57142859 L12,10.2857143 L3.42857143,10.2857143 L3.42857143,8.57142859 Z M3.42857143,13.7142857 L17.1428572,13.7142857 L17.1428572,15.4285714 L3.42857143,15.4285714 L3.42857143,13.7142857 Z M3.42857143,18.8571429 L10.2857143,18.8571429 L10.2857143,20.5714286 L3.42857143,20.5714286 L3.42857143,18.8571429 Z" id="Shape"></path>
        </g>
    </g>
</svg>
