<?xml version="1.0" encoding="UTF-8" standalone="no"?>
<!DOCTYPE svg PUBLIC "-//W3C//DTD SVG 1.1//EN" "http://www.w3.org/Graphics/SVG/1.1/DTD/svg11.dtd">
<svg width="100%" height="100%" viewBox="0 0 24 24" version="1.1" xmlns="http://www.w3.org/2000/svg" xmlns:xlink="http://www.w3.org/1999/xlink" xml:space="preserve" xmlns:serif="http://www.serif.com/" style="fill-rule:evenodd;clip-rule:evenodd;">
    <g id="icon">
        <g id="vector">
            <path id="path" d="M0,0L24,0L24,24L0,24L0,0Z" style="fill:rgb(213,213,213);fill-rule:nonzero;stroke:black;stroke-opacity:0;stroke-width:1px;"/>
            <g transform="matrix(0.776179,0,0,0.776179,2.68585,2.68585)">
                <path d="M19,3L5,3C3.9,3 3,3.9 3,5L3,19C3,20.1 3.9,21 5,21L19,21C20.1,21 21,20.1 21,19L21,5C21,3.9 20.1,3 19,3ZM14,17L7,17L7,15L14,15L14,17ZM17,13L7,13L7,11L17,11L17,13ZM17,9L7,9L7,7L17,7L17,9Z" style="fill:white;fill-rule:nonzero;"/>
            </g>
        </g>
    </g>
</svg>
