<?xml version="1.0" encoding="UTF-8" standalone="no"?>
<!DOCTYPE svg PUBLIC "-//W3C//DTD SVG 1.1//EN" "http://www.w3.org/Graphics/SVG/1.1/DTD/svg11.dtd">
<svg width="100%" height="100%" viewBox="0 0 21 24" version="1.1" xmlns="http://www.w3.org/2000/svg" xmlns:xlink="http://www.w3.org/1999/xlink" xml:space="preserve" xmlns:serif="http://www.serif.com/" style="fill-rule:evenodd;clip-rule:evenodd;stroke-linejoin:round;stroke-miterlimit:2;">
    <g transform="matrix(1.16427,0,0,1.16427,-3.47122,-1.96762)">
        <g id="Page-1">
            <g id="file-icon">
                <path d="M19,3L5,3C3.9,3 3,3.9 3,5L3,19C3,20.1 3.9,21 5,21L19,21C20.1,21 21,20.1 21,19L21,5C21,3.9 20.1,3 19,3ZM14,17L7,17L7,15L14,15L14,17ZM17,13L7,13L7,11L17,11L17,13ZM17,9L7,9L7,7L17,7L17,9Z" style="fill-rule:nonzero;"/>
            </g>
        </g>
    </g>
</svg>
