<?xml version="1.0" encoding="UTF-8" standalone="no"?>
<!DOCTYPE svg PUBLIC "-//W3C//DTD SVG 1.1//EN" "http://www.w3.org/Graphics/SVG/1.1/DTD/svg11.dtd">
<svg width="100%" height="100%" viewBox="0 0 24 24" version="1.1" xmlns="http://www.w3.org/2000/svg" xmlns:xlink="http://www.w3.org/1999/xlink" xml:space="preserve" xmlns:serif="http://www.serif.com/" style="fill-rule:evenodd;clip-rule:evenodd;stroke-linejoin:round;stroke-miterlimit:2;">
    <path d="M21,16L21,17C21,18.1 20.1,19 19,19L5,19C3.9,19 3,18.1 3,17L3,16L5,16L5,17L19,17L19,16L21,16ZM19,14L19,10C19,9.45 18.55,9 18,9L14.5,9L14.5,10.5L17.5,10.5L17.5,11.5L15.5,11.5L15.5,12.5L17.5,12.5L17.5,13.5L14.5,13.5L14.5,15L18,15C18.55,15 19,14.55 19,14ZM9.5,9L9.5,15L8,15L8,13.5L5,13.5L5,9L6.5,9L6.5,12L8,12L8,9L9.5,9ZM12.75,12.723L12.75,14.223L11.25,14.223L11.25,12.723L12.75,12.723ZM12.75,9.723L12.75,11.223L11.25,11.223L11.25,9.723L12.75,9.723ZM3,8L3,7C3,5.9 3.9,5 5,5L19,5C20.1,5 21,5.9 21,7L21,8L19,8L19,7L5,7L5,8L3,8Z" style="fill-rule:nonzero;"/>
</svg>
