<?xml version="1.0" encoding="UTF-8" standalone="no"?>
<!DOCTYPE svg PUBLIC "-//W3C//DTD SVG 1.1//EN" "http://www.w3.org/Graphics/SVG/1.1/DTD/svg11.dtd">
<svg width="100%" height="100%" viewBox="0 0 24 24" version="1.1" xmlns="http://www.w3.org/2000/svg" xmlns:xlink="http://www.w3.org/1999/xlink" xml:space="preserve" xmlns:serif="http://www.serif.com/" style="fill-rule:evenodd;clip-rule:evenodd;stroke-linejoin:round;stroke-miterlimit:2;">
    <path d="M21,16L21,17C21,18.1 20.1,19 19,19L5,19C3.9,19 3,18.1 3,17L3,16L5,16L5,17L19,17L19,16L21,16ZM3,8L3,7C3,5.9 3.9,5 5,5L19,5C20.1,5 21,5.9 21,7L21,8L19,8L19,7L5,7L5,8L3,8ZM21,14.014C21,14.564 20.55,15.014 20,15.014L16.5,15.014L16.5,13.514L19.5,13.514L19.5,12.514L17.5,12.514C16.95,12.514 16.5,12.064 16.5,11.514L16.5,10.014C16.5,9.464 16.95,9.014 17.5,9.014L20,9.014C20.55,9.014 21,9.464 21,10.014L21,14.014ZM6,15L4.5,15L4.5,10.5L3,10.5L3,9L6,9L6,15ZM8,15C7.45,15 7,14.55 7,14L7,10C7,9.45 7.45,9 8,9L11.5,9L11.5,10.5L8.5,10.5L8.5,11.5L10.5,11.5C11.05,11.5 11.5,11.95 11.5,12.5L11.5,14C11.5,14.55 11.05,15 10.5,15L8,15ZM14.75,12.722L13.25,12.722L13.25,14.223L14.75,14.223L14.75,12.722ZM9.995,12.456L8.495,12.456L8.495,13.956L9.995,13.956L9.995,12.456ZM19.508,9.984L18.008,9.984L18.008,11.484L19.508,11.484L19.508,9.984ZM14.75,9.722L13.25,9.722L13.25,11.223L14.75,11.223L14.75,9.722Z" style="fill-rule:nonzero;"/>
</svg>
