<?xml version="1.0" encoding="UTF-8" standalone="no"?>
<!DOCTYPE svg PUBLIC "-//W3C//DTD SVG 1.1//EN" "http://www.w3.org/Graphics/SVG/1.1/DTD/svg11.dtd">
<svg width="100%" height="100%" viewBox="0 0 24 24" version="1.1" xmlns="http://www.w3.org/2000/svg" xmlns:xlink="http://www.w3.org/1999/xlink" xml:space="preserve" xmlns:serif="http://www.serif.com/" style="fill-rule:evenodd;clip-rule:evenodd;stroke-linejoin:round;stroke-miterlimit:2;">
    <path d="M19,4L5,4C3.89,4 3,4.9 3,6L3,18C3,19.1 3.89,20 5,20L19,20C20.1,20 21,19.1 21,18L21,6C21,4.9 20.1,4 19,4ZM18,14C18,14.55 17.55,15 17,15L16.25,15L16.25,16.5L14.75,16.5L14.75,15L14,15C13.45,15 13,14.55 13,14L13,10C13,9.45 13.45,9 14,9L17,9C17.55,9 18,9.45 18,10L18,14ZM7.5,13.5L10.509,13.496L10.508,14.997L6,15L6,9L7.5,9L7.5,13.5ZM14.5,13.5L16.5,13.5L16.5,10.5L14.5,10.5L14.5,13.5Z" style="fill-rule:nonzero;"/>
</svg>
