<?xml version="1.0" encoding="UTF-8" standalone="no"?>
<!DOCTYPE svg PUBLIC "-//W3C//DTD SVG 1.1//EN" "http://www.w3.org/Graphics/SVG/1.1/DTD/svg11.dtd">
<svg width="100%" height="100%" viewBox="0 0 1344 1344" version="1.1" xmlns="http://www.w3.org/2000/svg" xmlns:xlink="http://www.w3.org/1999/xlink" xml:space="preserve" xmlns:serif="http://www.serif.com/" style="fill-rule:evenodd;clip-rule:evenodd;stroke-linejoin:round;stroke-miterlimit:2;">
    <path id="path2" d="M671.959,347C493.701,347.003 347.017,493.69 347.017,671.951L347.017,671.96C347.017,850.222 493.701,996.909 671.959,996.912C731.433,996.791 789.748,980.344 840.521,949.372C880.458,965.242 969.914,1012.33 991.205,991.988C1013.45,970.741 965.085,870.743 953.49,833.584C981.82,784.426 996.787,728.695 996.898,671.958C996.895,493.7 850.215,347.016 671.96,347.011L671.959,347ZM671.997,470.543C782.529,470.543 873.483,561.5 873.483,672.035C873.476,782.565 782.524,873.512 671.996,873.512C561.469,873.512 470.517,782.565 470.509,672.035C470.509,561.5 561.464,470.543 671.996,470.543L671.997,470.543ZM670.273,655.827C670.273,674.121 666.595,689.323 659.238,701.433C651.882,713.542 641.497,721.745 628.086,726.042L662.07,761.394L637.949,761.394L610.117,729.167L604.746,729.362C583.717,729.362 567.49,722.933 556.064,710.075C544.639,697.217 538.926,679.069 538.926,655.632C538.926,632.39 544.655,614.372 556.113,601.579C567.572,588.786 583.848,582.39 604.941,582.39C625.449,582.39 641.465,588.9 652.988,601.921C664.512,614.942 670.273,632.91 670.273,655.827ZM787.852,727.409L770.078,681.999L712.852,681.999L695.273,727.409L678.477,727.409L734.922,584.05L748.887,584.05L805.039,727.409L787.852,727.409ZM556.504,655.827C556.504,675.163 560.622,689.828 568.857,699.821C577.093,709.815 589.056,714.811 604.746,714.811C620.566,714.811 632.513,709.831 640.586,699.87C648.659,689.909 652.695,675.228 652.695,655.827C652.695,636.621 648.675,622.054 640.635,612.126C632.594,602.198 620.697,597.233 604.941,597.233C589.121,597.233 577.093,602.23 568.857,612.224C560.622,622.217 556.504,636.752 556.504,655.827ZM764.902,667.058L748.301,622.819C746.152,617.22 743.939,610.352 741.66,602.214C740.228,608.464 738.177,615.332 735.508,622.819L718.711,667.058L764.902,667.058Z" style="fill:white;fill-rule:nonzero;"/>
</svg>
